<?xml version="1.0"?>
<!--Icons from directory ""-->
<svg xmlns="http://www.w3.org/2000/svg" width="21" height="22" viewBox="0 0 21 22"><svg width="21" viewBox="0 0 21 22" height="22" id="calendar" y="0"><path  fill="#000000" d="m19.251 2.025h-2.845v-1.377c0-0.381-0.294-0.689-0.656-0.689-0.363 0-0.656 0.308-0.656 0.689v1.377h-3.938v-1.377c0-0.381-0.294-0.689-0.655-0.689-0.363 0-0.657 0.308-0.657 0.689v1.377h-3.938v-1.377c0-0.381-0.294-0.689-0.656-0.689-0.363 0-0.657 0.308-0.657 0.689v1.377h-2.843c-0.966 0-1.75 0.822-1.75 1.837v16.302c0 1.015 0.784 1.836 1.75 1.836h17.501c0.966 0 1.749-0.821 1.749-1.836v-16.302c0-1.015-0.783-1.837-1.749-1.837zm0.437 18.139a0.448 0.448 0 0 1 -0.437 0.459h-17.501a0.45 0.45 0 0 1 -0.438 -0.459v-16.302a0.45 0.45 0 0 1 0.438 -0.459h2.844v1.378c0 0.381 0.294 0.689 0.657 0.689 0.362 0 0.656-0.308 0.656-0.689v-1.378h3.938v1.378c0 0.381 0.294 0.689 0.657 0.689 0.361 0 0.655-0.308 0.655-0.689v-1.378h3.938v1.378c0 0.381 0.293 0.689 0.656 0.689 0.362 0 0.656-0.308 0.656-0.689v-1.378h2.845c0.241 0 0.437 0.206 0.437 0.459v16.302z"/><path fill="#000000" d="m4.594 8.225h2.625v2.066h-2.625zm0 3.443h2.625v2.067h-2.625zm0 3.444h2.625v2.066h-2.625zm4.594 0h2.625v2.066h-2.625zm0-3.444h2.625v2.067h-2.625zm0-3.443h2.625v2.066h-2.625zm4.593 6.887h2.625v2.066h-2.625zm0-3.444h2.625v2.067h-2.625zm0-3.443h2.625v2.066h-2.625z"/></svg></svg>
